<svg width="239" height="250" viewBox="0 0 239 250" fill="none" xmlns="http://www.w3.org/2000/svg">
<g filter="url(#filter0_d_0_1018)">
<path d="M156.296 40.3967C149.944 30.2137 131.415 19.8893 122.945 16C110.239 16 103.357 28.1983 99.1218 40.3967C94.8866 52.595 81.1224 60.5504 70.0051 60.5504C58.8878 60.5504 16.5363 71.1576 16.0069 100.328C15.4775 129.497 45.653 131.619 37.712 166.092C29.7711 200.566 50.4175 221.78 70.0051 231.327C89.5927 240.874 108.651 221.78 122.945 221.78C137.238 221.78 146.238 235.57 156.296 231.327C166.355 227.084 166.884 207.991 173.766 200.566C180.648 193.141 193.354 198.445 206.059 187.837C218.765 177.23 211.353 153.894 213.471 135.862C215.588 117.83 223 107.753 223 100.328C223 92.9025 212.412 95.5543 206.059 86.5381C199.707 77.522 197.06 62.1415 193.354 53.1253C189.648 44.1092 164.237 53.1253 156.296 40.3967Z" fill="#68A7B5" fill-opacity="0.5" shape-rendering="crispEdges"/>
<path d="M156.296 40.3967C149.944 30.2137 131.415 19.8893 122.945 16C110.239 16 103.357 28.1983 99.1218 40.3967C94.8866 52.595 81.1224 60.5504 70.0051 60.5504C58.8878 60.5504 16.5363 71.1576 16.0069 100.328C15.4775 129.497 45.653 131.619 37.712 166.092C29.7711 200.566 50.4175 221.78 70.0051 231.327C89.5927 240.874 108.651 221.78 122.945 221.78C137.238 221.78 146.238 235.57 156.296 231.327C166.355 227.084 166.884 207.991 173.766 200.566C180.648 193.141 193.354 198.445 206.059 187.837C218.765 177.23 211.353 153.894 213.471 135.862C215.588 117.83 223 107.753 223 100.328C223 92.9025 212.412 95.5543 206.059 86.5381C199.707 77.522 197.06 62.1415 193.354 53.1253C189.648 44.1092 164.237 53.1253 156.296 40.3967Z" stroke="#68A7B5" stroke-width="2" shape-rendering="crispEdges"/>
</g>
<defs>
<filter id="filter0_d_0_1018" x="0" y="0" width="239" height="250" filterUnits="userSpaceOnUse" color-interpolation-filters="sRGB">
<feFlood flood-opacity="0" result="BackgroundImageFix"/>
<feColorMatrix in="SourceAlpha" type="matrix" values="0 0 0 0 0 0 0 0 0 0 0 0 0 0 0 0 0 0 127 0" result="hardAlpha"/>
<feOffset/>
<feGaussianBlur stdDeviation="7.5"/>
<feComposite in2="hardAlpha" operator="out"/>
<feColorMatrix type="matrix" values="0 0 0 0 0.407843 0 0 0 0 0.654902 0 0 0 0 0.709804 0 0 0 0.2 0"/>
<feBlend mode="normal" in2="BackgroundImageFix" result="effect1_dropShadow_0_1018"/>
<feBlend mode="normal" in="SourceGraphic" in2="effect1_dropShadow_0_1018" result="shape"/>
</filter>
</defs>
</svg>
