<svg width="280" height="281" viewBox="0 0 280 281" fill="none" xmlns="http://www.w3.org/2000/svg">
<g filter="url(#filter0_d_0_1017)">
<path d="M180.296 32.8948C171.116 27.3857 153.137 35.1903 145.295 39.7812C138.984 35.3816 122.574 27.8448 107.426 32.8948C88.491 39.2074 99.9666 63.3096 75.294 71.9176C50.6213 80.5255 56.3592 117.253 53.4903 127.009C50.6213 136.764 35.703 138.486 31.6865 154.554C27.67 170.622 42.5884 175.213 42.5884 183.247C42.5884 191.281 32.8341 201.611 42.5884 212.514C52.3427 223.418 70.13 215.384 86.7697 225.139C103.409 234.895 112.016 248.094 126.361 249.816C140.705 251.537 153.328 240.634 168.247 240.634C183.165 240.634 210.133 245.799 226.199 240.634C242.265 235.469 239.396 217.105 246.855 189.56C254.314 162.014 239.97 161.44 239.396 145.946C238.822 130.452 250.871 107.497 246.855 97.1676C242.839 86.8381 222.182 91.429 210.133 81.6733C198.083 71.9176 191.772 39.7812 180.296 32.8948Z" fill="#EBD371" fill-opacity="0.5" shape-rendering="crispEdges"/>
<path d="M180.296 32.8948C171.116 27.3857 153.137 35.1903 145.295 39.7812C138.984 35.3816 122.574 27.8448 107.426 32.8948C88.491 39.2074 99.9666 63.3096 75.294 71.9176C50.6213 80.5255 56.3592 117.253 53.4903 127.009C50.6213 136.764 35.703 138.486 31.6865 154.554C27.67 170.622 42.5884 175.213 42.5884 183.247C42.5884 191.281 32.8341 201.611 42.5884 212.514C52.3427 223.418 70.13 215.384 86.7697 225.139C103.409 234.895 112.016 248.094 126.361 249.816C140.705 251.537 153.328 240.634 168.247 240.634C183.165 240.634 210.133 245.799 226.199 240.634C242.265 235.469 239.396 217.105 246.855 189.56C254.314 162.014 239.97 161.44 239.396 145.946C238.822 130.452 250.871 107.497 246.855 97.1676C242.839 86.8381 222.182 91.429 210.133 81.6733C198.083 71.9176 191.772 39.7812 180.296 32.8948Z" stroke="#EBD371" stroke-width="2" shape-rendering="crispEdges"/>
</g>
<defs>
<filter id="filter0_d_0_1017" x="0" y="0" width="280" height="281" filterUnits="userSpaceOnUse" color-interpolation-filters="sRGB">
<feFlood flood-opacity="0" result="BackgroundImageFix"/>
<feColorMatrix in="SourceAlpha" type="matrix" values="0 0 0 0 0 0 0 0 0 0 0 0 0 0 0 0 0 0 127 0" result="hardAlpha"/>
<feOffset/>
<feGaussianBlur stdDeviation="15"/>
<feComposite in2="hardAlpha" operator="out"/>
<feColorMatrix type="matrix" values="0 0 0 0 0.921569 0 0 0 0 0.827451 0 0 0 0 0.443137 0 0 0 0.4 0"/>
<feBlend mode="normal" in2="BackgroundImageFix" result="effect1_dropShadow_0_1017"/>
<feBlend mode="normal" in="SourceGraphic" in2="effect1_dropShadow_0_1017" result="shape"/>
</filter>
</defs>
</svg>
